<?xml version="1.0" encoding="UTF-8" standalone="no"?>
<!-- Created with Inkscape (http://www.inkscape.org/) -->

<svg
   version="1.1"
   id="svg1"
   width="946.66669"
   height="802.66669"
   viewBox="0 0 946.66669 802.66669"
   sodipodi:docname="rudoki-sfondo.bmp.svg"
   inkscape:export-filename="rudoki-solo-logo.svg"
   inkscape:export-xdpi="96"
   inkscape:export-ydpi="96"
   xmlns:inkscape="http://www.inkscape.org/namespaces/inkscape"
   xmlns:sodipodi="http://sodipodi.sourceforge.net/DTD/sodipodi-0.dtd"
   xmlns:xlink="http://www.w3.org/1999/xlink"
   xmlns="http://www.w3.org/2000/svg"
   xmlns:svg="http://www.w3.org/2000/svg">
  <defs
     id="defs1">
    <linearGradient
       id="linearGradient1"
       inkscape:collect="always">
      <stop
         style="stop-color:#003bb2;stop-opacity:1;"
         offset="0"
         id="stop1" />
      <stop
         style="stop-color:#5eabf7;stop-opacity:1;"
         offset="1"
         id="stop2" />
    </linearGradient>
    <linearGradient
       id="linearGradient6"
       inkscape:collect="always">
      <stop
         style="stop-color:#004ba4;stop-opacity:0.60717118;"
         offset="0"
         id="stop6" />
      <stop
         style="stop-color:#7bb1f1;stop-opacity:0.66543615;"
         offset="1"
         id="stop7" />
    </linearGradient>
    <linearGradient
       inkscape:collect="always"
       xlink:href="#linearGradient6"
       id="linearGradient7"
       x1="56.319401"
       y1="400.50671"
       x2="945.13013"
       y2="400.50671"
       gradientUnits="userSpaceOnUse"
       gradientTransform="translate(-27.329303)" />
    <linearGradient
       inkscape:collect="always"
       xlink:href="#linearGradient1"
       id="linearGradient2"
       x1="111.55902"
       y1="392.49985"
       x2="791.21124"
       y2="392.49985"
       gradientUnits="userSpaceOnUse" />
  </defs>
  <sodipodi:namedview
     id="namedview1"
     pagecolor="#ffffff"
     bordercolor="#000000"
     borderopacity="0.25"
     inkscape:showpageshadow="2"
     inkscape:pageopacity="0.0"
     inkscape:pagecheckerboard="0"
     inkscape:deskcolor="#d1d1d1"
     inkscape:export-bgcolor="#ffffffff" />
  <path
     style="display:inline;fill:url(#linearGradient2)"
     d="m 355.71475,640.4549 c -30.71454,0 -31.6501,-1.08262 -31.6501,-10.82632 0,-4.11277 0.7685,-6.08066 3.11741,-7.98269 2.91702,-2.36206 5.92499,-2.52432 46.79485,-2.52432 h 43.67745 l 0.62154,-25 c 0.58684,-23.60411 0.81301,-25.37224 4.05052,-31.66667 3.42936,-6.66743 8.0656,-11.69787 14.35722,-15.57794 6.04126,-3.72568 17.10126,-5.08873 41.29079,-5.08873 28.63527,0 27.42966,0.57664 29.9022,-14.30211 1.19189,-7.1723 7.09356,-14.60973 14.53581,-18.31835 l 6.78186,-3.37954 h 105.5263 c 114.63763,0 112.99051,0.0994 122.83798,-7.41165 2.72108,-2.07547 6.13922,-6.6324 7.96288,-10.61581 l 3.19526,-6.97937 -0.35633,-146.49659 -0.35634,-146.49659 -4.02167,-5.95636 c -2.21192,-3.276 -6.96483,-7.776 -10.56201,-10 l -6.54033,-4.04364 -294.25408,-0.34215 c -326.16125,-0.37924 -298.62595,-1.13229 -309.24039,8.45722 -10.08328,9.10964 -9.50028,-1.23534 -9.08573,161.21827 l 0.37086,145.33334 3.33334,5.93774 c 7.18806,12.80423 22.20953,19.37617 35.33688,15.45996 8.21745,-2.45147 15.7924,-8.54932 19.70181,-15.86 2.92087,-5.46208 2.9704,-6.46629 3.62797,-73.5377 l 0.66667,-68 3.85218,-7.7288 c 5.64953,-11.33491 13.85552,-19.75754 24.40759,-25.05195 8.68056,-4.3554 9.70883,-4.55259 23.74023,-4.55259 13.51692,0 15.29153,0.30631 22.63759,3.90743 10.61311,5.20266 19.85594,14.69094 25.1049,25.77157 l 4.25751,8.98767 0.66667,68 c 0.72987,74.44652 0.38698,71.35668 8.85872,79.82842 15.36838,15.36838 39.51077,11.66306 49.07611,-7.53208 l 3.39851,-6.81992 0.0475,-62.07155 c 0.051,-66.64238 0.36985,-70.44353 7.00655,-83.52724 4.7658,-9.39537 16.09376,-19.3858 26.87513,-23.70187 7.03369,-2.81578 10.97853,-3.5091 19.96621,-3.5091 15.92446,0 24.17565,3.40066 35.52653,14.64195 12.04823,11.9319 15.87576,21.51451 16.89997,42.31098 l 0.73692,14.96301 6.37433,2.11721 c 12.45726,4.13763 24.09746,14.48964 29.76592,26.47179 5.59241,11.82138 6.40931,18.5972 5.84978,48.52152 -0.4724,25.26483 -0.77703,28.21314 -3.54478,34.30688 -6.65046,14.64228 -17.79124,25.16562 -32.43264,30.63516 -4.91677,1.83675 -9.23006,2.22938 -20.0793,1.82777 -13.26333,-0.49097 -14.18641,-0.72437 -23.0202,-5.82054 -11.55373,-6.66529 -20.75949,-17.65239 -24.69222,-29.47024 -2.48659,-7.47221 -2.78159,-11.43384 -2.73079,-36.6724 0.0611,-30.34859 0.80071,-34.89569 7.67744,-47.1995 5.41691,-9.6919 18.31602,-19.43129 31.55501,-23.82539 2.2188,-0.73644 2.40607,-2.21679 2,-15.81036 -0.42158,-14.11257 -0.68506,-15.34891 -4.46393,-20.94561 -2.20874,-3.27127 -6.61043,-7.77127 -9.78152,-10 -5.13688,-3.61033 -6.81866,-4.05223 -15.422,-4.05223 -8.42141,0 -10.49109,0.51607 -16.18323,4.03525 -4.04243,2.49925 -8.06285,6.51841 -10.5621,10.5588 l -4.03525,6.52355 -0.66667,67.44121 -0.66666,67.4412 -4.14715,8.66667 c -8.55462,17.87735 -22.04942,27.99061 -41.13826,30.82972 -11.95634,1.77828 -21.18644,0.30214 -31.88885,-5.09989 -12.30051,-6.20866 -22.93578,-19.81932 -26.35625,-33.72983 -0.63112,-2.56667 -1.13651,-32.27938 -1.12309,-66.02824 0.0283,-71.19088 -0.001,-71.42042 -10.62281,-82.04183 -14.34489,-14.34488 -36.45492,-11.50647 -47.28317,6.07006 l -4.10709,6.66667 -0.66667,68 -0.66667,68 -4.48291,8.93205 c -8.20815,16.35448 -21.21597,26.01876 -39.19972,29.12388 -29.25064,5.05048 -56.52841,-14.68174 -61.08127,-44.18501 -0.82474,-5.34441 -1.17761,-62.1463 -0.94347,-151.87092 l 0.37404,-143.33334 3.14578,-7.56408 c 3.78652,-9.10475 14.19079,-21.15333 22.44211,-25.98893 3.30977,-1.93966 10.0065,-4.61626 14.88161,-5.948 8.43498,-2.3042 22.80966,-2.42323 297.11,-2.46017 310.82565,-0.0419 298.82953,-0.30015 312.30584,6.7241 15.19005,7.91749 25.95692,23.48878 28.1822,40.75773 1.47943,11.48088 1.53729,275.13268 0.0632,287.82856 -2.17802,18.75819 -13.33013,34.27102 -30.47636,42.39329 l -8.98767,4.25751 -108.93402,0.66667 c -77.09402,0.47181 -109.36555,1.09839 -110.4104,2.14373 -0.81201,0.81238 -2.38324,5.01238 -3.49162,9.33333 -2.5442,9.91839 -6.90613,16.65023 -13.40754,20.69205 -4.60166,2.86078 -7.00774,3.22816 -25.08976,3.83089 l -20,0.66666 v 27.33334 27.33333 l 51.52822,0.66667 c 48.27579,0.62459 51.70527,0.82699 54.33333,3.20665 1.90696,1.72672 2.80512,4.15097 2.80512,7.57143 0,5.39844 -2.40652,8.77254 -7.09324,9.94523 -3.84388,0.96179 -180.69075,0.61002 -215.19606,0.61002 z m 91.62263,-47.33333 c 0,-14.3 -0.47064,-26 -1.04586,-26 -0.57522,0 -2.07522,1.74257 -3.33333,3.87239 -1.91364,3.23952 -2.28748,7.48873 -2.28748,26 v 22.12761 h 3.33333 3.33334 z m 27.47764,-93.89753 c -8.76488,0 13.72326,-13.07291 15.09227,-21.62727 1.59987,-9.9969 1.66005,-42.23199 0.0943,-50.48838 -1.66202,-8.76377 -7.26638,-17.11705 -14.03359,-20.91701 l -5.29725,-2.97454 -0.66667,27.25202 c -0.63484,25.95076 -0.80849,27.39368 -3.63703,30.21902 -4.37769,4.37274 -11.78333,4.04265 -15.86909,-0.70733 -3.09777,-3.60138 -3.16054,-4.205 -3.16054,-30.39147 v -26.71711 l -6.33334,4.4871 c -4.26294,3.02024 -7.53198,6.84412 -10,11.69722 -3.62589,7.12993 -3.66666,7.4975 -3.66666,33.0536 0,25.12314 0.0975,26.04958 3.4981,33.23786 3.45928,7.31231 11.24895,14.44835 18.25161,16.72012 5.7205,1.85582 31.98317,-2.84383 25.72793,-2.84383 z m 163.18903,-47.15479 c -2.44871,-1.2339 -3.51026,-3.05091 -4,-6.84662 -0.94565,-7.32917 -5.70687,-10.76174 -11.92205,-8.59511 -4.20276,1.46509 -4.74504,1.32027 -7.63437,-2.03877 -3.77378,-4.3873 -3.91814,-7.08544 -0.57324,-10.71458 2.2012,-2.38827 2.33356,-3.3703 1,-7.41927 -1.18082,-3.5852 -2.36413,-4.76226 -5.1061,-5.07915 -4.7898,-0.55356 -6.69964,-3.17628 -6.18855,-8.49852 0.34514,-3.59414 1.32888,-4.84285 5.27264,-6.69284 6.52763,-3.06206 8.71001,-8.90295 5.06017,-13.54297 -3.32717,-4.22982 -3.23776,-6.00857 0.53929,-10.7289 2.9155,-3.64361 3.37229,-3.78121 7.62774,-2.29775 6.2319,2.17245 10.98028,-1.26283 11.92447,-8.62693 0.60846,-4.74563 1.11764,-5.31098 5.83185,-6.47512 4.73291,-1.16876 5.42498,-0.97348 8.26938,2.33334 4.21194,4.89667 11.326,5.03238 14.44283,0.2755 2.34114,-3.57304 7.03331,-4.36692 11.54359,-1.95309 1.77272,0.94873 2.57902,2.79617 2.57902,5.90921 0,6.12604 5.98662,10.74336 11.30679,8.72064 5.12258,-1.9476 5.54001,-1.80338 9.39018,3.24446 l 3.49935,4.58789 -2.85813,3.86583 c -4.18421,5.65945 -2.29194,12.37877 4.07174,14.45846 3.9976,1.30644 4.6442,2.13593 5.00943,6.42638 0.49337,5.79562 -1.2923,8.42575 -6.10655,8.99441 -5.20806,0.61518 -6.90315,8.05726 -3.02881,13.29759 3.05269,4.12898 2.53677,6.45049 -2.43304,10.9481 -2.29129,2.07359 -3.39727,2.23721 -6.89061,1.01943 -5.89011,-2.0533 -11.96035,2.36079 -11.96035,8.6972 0,3.50359 -0.78833,4.78934 -3.93379,6.41592 -5.65254,2.92304 -7.61177,2.54834 -10.27831,-1.96576 -1.85545,-3.14103 -3.29469,-4 -6.70213,-4 -3.27534,0 -5.06437,0.98075 -7.2966,4 -3.23063,4.36966 -5.38025,4.83861 -10.45584,2.28102 z m 27.57987,-26.36984 c 17.74355,-6.72285 19.01974,-34.04678 2.036,-43.59218 -6.20986,-3.49013 -17.10069,-4.02056 -22.68209,-1.1047 -4.0991,2.14147 -9.89225,8.0593 -12.1042,12.36471 -2.39511,4.66191 -1.80311,15.92572 1.14023,21.69515 2.45972,4.82146 7.3611,9.34268 12.03019,11.09713 3.47612,1.30618 15.67468,1.01953 19.57987,-0.46011 z m -101.7596,-60.58055 c -10.31266,-3.25306 -11.40676,-4.28314 -11.08564,-10.437 0.45487,-8.71676 0.20142,-9.32934 -5.54119,-13.39352 l -5.41628,-3.83323 -6.70836,2.16656 c -3.6896,1.19161 -7.18836,2.16656 -7.77503,2.16656 -1.46431,0 -10.62711,-12.63433 -10.62711,-14.65343 0,-0.89622 1.87078,-3.99154 4.15729,-6.8785 4.0632,-5.1302 4.1191,-5.39104 2.4701,-11.5252 -2.11471,-7.86655 -2.4714,-8.24412 -10.22521,-10.82382 -7.50928,-2.49834 -9.24337,-5.86202 -7.84149,-15.21046 0.88673,-5.91312 1.16881,-6.24098 6.51642,-7.57403 8.34523,-2.0803 9.25175,-2.91033 11.32747,-10.37186 l 1.90642,-6.85296 -4.1555,-5.24674 c -2.28552,-2.88571 -4.1555,-5.98002 -4.1555,-6.87624 0,-1.94741 9.13772,-14.65343 10.53823,-14.65343 0.53777,0 4.13194,0.93668 7.98703,2.08152 7.00688,2.08082 7.01092,2.08028 11.90867,-1.59618 6.59425,-4.94993 6.82083,-5.42131 5.98758,-12.45682 -0.85024,-7.17894 -0.10545,-8.02457 9.96011,-11.30862 7.94995,-2.59381 9.01199,-2.17321 13.71102,5.42999 2.65849,4.30152 3.16364,4.51677 10.59993,4.51677 7.72717,0 7.85323,-0.0624 12.11728,-6 2.36988,-3.3 5.08465,-6 6.03283,-6 0.94818,0 5.04646,1.24311 9.10731,2.76247 l 7.38335,2.76246 0.002,8.23754 0.002,8.23753 5.7886,3.65687 c 5.7546,3.63539 5.82976,3.64465 12.79324,1.57672 8.02277,-2.38251 8.90918,-1.95249 15.45955,7.4997 l 3.58401,5.17173 -4.68914,6.38789 -4.68915,6.3879 2.15314,7.01669 c 1.9996,6.51633 2.53733,7.11217 7.54073,8.35566 9.1193,2.26642 9.38758,2.63105 9.38758,12.75883 v 9.18802 l -7.39758,2.34214 c -7.19228,2.27714 -7.45656,2.53436 -9.52292,9.26825 l -2.12534,6.9261 4.52292,5.92349 c 2.48761,3.25792 4.52292,6.38333 4.52292,6.94536 0,1.3664 -10.49628,14.59466 -11.58048,14.59466 -0.46849,0 -4.00112,-0.99273 -7.85027,-2.20607 l -6.99846,-2.20607 -5.45206,4.31811 c -5.266,4.17074 -5.45206,4.58403 -5.45206,12.11027 v 7.79216 l -7.38335,2.76247 c -4.06085,1.51936 -8.13277,2.76246 -9.04873,2.76246 -0.91596,0 -3.90508,-3 -6.64251,-6.66666 -4.46219,-5.97694 -5.49175,-6.65698 -9.95127,-6.57296 -7.06563,0.13312 -8.933,1.17605 -13.55933,7.57296 -2.25401,3.11666 -4.54444,5.60734 -5.08984,5.53484 -0.5454,-0.0725 -3.47252,-0.9144 -6.5047,-1.87088 z m 39.51306,-42.75793 c 9.16532,-4.25093 15.24626,-9.98806 19.68569,-18.5727 2.86504,-5.54018 3.44759,-8.46905 3.44759,-17.33334 0,-8.86254 -0.58574,-11.80855 -3.46306,-17.41794 -7.01548,-13.67675 -20.20576,-21.91539 -35.08711,-21.91539 -16.1426,0 -28.89214,7.99578 -35.59744,22.32468 -3.60871,7.71164 -3.92753,9.48291 -3.37709,18.76211 0.37102,6.2546 1.55494,12.06463 3.03888,14.91321 10.43259,20.02639 32.12943,28.15517 51.35254,19.23937 z m 96.30943,36.76063 c -1.98568,-3.17959 -6.36553,-3.4677 -9.2263,-0.60693 -1.78949,1.78948 -2.43302,1.81317 -4.90477,0.18053 -1.56476,-1.03356 -3.05252,-3.31044 -3.30612,-5.05973 -0.6739,-4.64846 -2.70099,-6.51387 -7.07846,-6.51387 -4.75446,0 -7.27561,-4.738 -4.31277,-8.10499 2.67547,-3.04041 2.27534,-7.57479 -0.81434,-9.22834 -1.74018,-0.93132 -2.66667,-2.79177 -2.66667,-5.35484 0,-3.08849 0.71973,-4.10833 3.36851,-4.77313 4.46865,-1.12156 6.52204,-5.00618 4.57213,-8.64962 -1.18491,-2.21402 -1.02001,-3.29307 0.81274,-5.31823 1.81485,-2.00539 3.38419,-2.36716 7.44903,-1.71716 4.82752,0.77195 5.23774,0.57117 6.55538,-3.20862 1.89873,-5.4467 7.23842,-6.57449 10.14257,-2.1422 2.4337,3.71429 5.27032,4.02596 8.66674,0.95225 3.63086,-3.28589 9.09957,-0.53159 9.09957,4.58296 0,4.7774 2.18903,6.96192 6.9763,6.96192 4.65332,0 7.13561,4.77957 4.20935,8.10499 -2.8266,3.21217 -2.21626,7.34985 1.43728,9.74375 3.96662,2.59902 3.07061,6.72566 -2.0124,9.26827 -2.68547,1.34332 -3.28581,2.65031 -3.32489,7.23862 -0.0554,6.50139 -3.59027,10.28874 -7.60002,8.14279 -3.0865,-1.65185 -7.68562,0.78517 -7.68562,4.07251 0,4.5677 -7.73096,5.6344 -10.35724,1.42907 z m 10.97946,-19.37778 c 4.07836,-4.07835 4.71111,-5.56704 4.71111,-11.08387 0,-5.21523 -0.666,-7.00814 -3.66666,-9.87074 -8.00003,-7.63195 -16.92704,-7.43405 -23.62304,0.52369 -8.54597,10.15632 -0.9378,24.93946 12.91192,25.08865 3.9335,0.0424 5.9272,-0.91826 9.66667,-4.65773 z M 199.03541,281.78823 c -15.28348,-0.60046 -17.26305,-0.96166 -19.93333,-3.63704 -4.38168,-4.39005 -4.03925,-11.78428 0.73597,-15.89174 l 3.70069,-3.18319 110.01742,0.35598 110.01742,0.35599 2.54856,3.14771 c 3.63445,4.48888 3.30628,11.54912 -0.72416,15.57956 -2.7137,2.7137 -4.59266,3.27694 -11,3.29741 -4.25,0.0136 -46.12727,0.16357 -93.06061,0.33333 -46.93333,0.16976 -92.96921,0.009 -102.30196,-0.35801 z m -18.59803,-54.7175 c 0,-3.72628 -5.45343,-9.51268 -3.94559,-13.47858 2.85843,-7.51826 -3.31305,-7.13726 115.60948,-7.13726 h 109.68766 l 3.44089,3.23242 c 4.57054,4.29363 4.73736,11.75144 0.35495,15.8685 l -3.08593,2.89908 -109.91407,-0.0405 c -69.08552,-0.0255 -112.14739,0.28158 -112.14739,-1.34362 z"
     id="path2"
     sodipodi:nodetypes="sssscsssssscssscccsscssscsssscssssscssscsssssscssssssssssssssssscccssssscscccsssscsssssssscssssscccsssssssssscccssssscsssscssssssssssssssssssssssssssscsssssssssssssssssssscsscssssssssscsssssssssssscccssscccssscsscsssscsscssssssccssssssssssssssssssssssssssssssssssssssscsscccsssscssscsscsss" />
  <path
     style="display:none;fill:url(#linearGradient7)"
     d="m 309.26529,743.80947 c -8.95667,-3.72058 -13.02261,-6.69682 -18.40998,-13.47594 -5.60087,-7.04777 -4.8322,-8.65728 1.08882,-2.27988 12.76274,13.74646 32.43162,17.63235 49.06562,9.69367 5.08968,-2.42908 10.33226,-6.23398 13.19063,-9.57333 5.08479,-5.94044 5.92416,-5.87891 2.77872,0.2037 -4.91904,9.51237 -21.71398,18.78771 -33.82028,18.67792 -3.41808,-0.031 -9.67017,-1.49176 -13.89353,-3.24614 z m 247.01218,1.20445 c -11.60396,-3.54773 -23.54189,-12.37023 -28.73962,-21.2395 -4.19158,-7.15238 -4.23118,-9.37681 -0.0576,-3.23484 4.3874,6.45665 16.49192,15.53928 25.03598,18.78577 4.78972,1.81995 10.36973,2.70431 17.2529,2.73437 17.50829,0.0765 30.95141,-6.17289 41.21804,-19.16114 2.90967,-3.68101 5.2903,-6.32694 5.2903,-5.87985 0,1.52358 -6.97799,12.08206 -10.49417,15.87886 -11.0333,11.91383 -32.76862,17.23345 -49.50583,12.11633 z m -387.23827,-0.4148 c -1.6655,-2.69482 0.64273,-4.15382 6.5716,-4.15382 5.33385,0 8.69349,1.75096 6.86604,3.5784 -1.55979,1.55979 -12.53871,2.02992 -13.43764,0.57542 z m 61.83594,-0.48715 c -0.8291,-0.91667 -6.4783,-9.46667 -12.55378,-19 l -11.04633,-17.33334 -10.83212,-0.38725 c -8.42938,-0.30136 -10.83211,-0.81893 -10.83211,-2.33334 0,-1.54085 2.15165,-1.94034 10.33333,-1.9184 l 10.33333,0.0277 4.81912,7.63899 c 2.65052,4.20144 7.98037,12.58899 11.8441,18.63899 l 7.02498,11 7.48924,0.0204 c 7.9936,0.0218 11.73715,1.42106 10.24803,3.83051 -1.25968,2.0382 -14.95324,1.88826 -16.82779,-0.18426 z m 168.73566,0.33333 c 0,3.92168 1.75812,-4.00066 23.07869,-4.01582 31.57114,-0.0225 40.68952,-3.10895 52.3131,-17.70755 6.27119,-7.87628 6.96236,-6.61477 1.16838,2.13253 -8.26137,12.4724 -17.77692,17.91755 -34.36178,19.66309 -15.56052,1.63774 -42.19839,-2.03101 -42.19839,-0.0723 z m 257.55556,0.44445 c -0.48889,-0.48889 -0.88889,-1.68889 -0.88889,-2.66667 0,-1.24161 1.98689,-1.77778 6.58798,-1.77778 6.69731,0 9.91501,2.01809 6.58284,4.12865 -2.16481,1.37118 -10.99939,1.59833 -12.28193,0.3158 z m 64.83937,0.0976 c -0.88279,-0.39774 -8.49159,-8.67475 -16.90845,-18.39335 -8.41685,-9.7186 -16.27297,-18.47488 -17.45805,-19.4584 -1.87013,-1.55207 -2.93504,-1.02237 -8.0636,4.01093 -3.2499,3.18954 -6.33532,5.37276 -6.85648,4.85159 -0.94302,-0.94301 11.26418,-14.21945 13.07426,-14.21945 0.52223,0 8.46963,8.63086 17.66086,19.17971 l 16.71135,19.17972 9.31769,0.52649 c 9.10202,0.5143 12.17128,1.51475 10.32166,3.36437 -1.15256,1.15255 -15.63726,1.93248 -17.79924,0.95839 z m 52.37333,-0.37764 c -1.71736,-2.77875 0.68887,-4.16437 7.23175,-4.16437 5.746,0 9.43875,1.67236 7.64767,3.46345 -1.52397,1.52397 -14.00731,2.11202 -14.87942,0.70092 z m -463.97578,-7.60597 c -4.63564,-1.48367 -8.77613,-4.32871 -14.21481,-9.76739 -11.12464,-11.12465 -11.911,-14.58692 -11.911,-52.44301 v -30.50133 l 5.66666,0.41 5.66667,0.40999 0.66667,31.33334 c 0.5281,24.82015 1.1104,32.30771 2.80139,36.02083 8.34234,18.31837 34.93487,19.95312 46.65218,2.86789 3.13191,-4.5667 3.22201,-5.44567 3.56581,-34.7869 0.19399,-16.556 0.65542,-31.45182 1.0254,-33.10182 0.55588,-2.47908 1.56959,-3 5.83797,-3 3.48007,0 5.42932,0.68809 5.9746,2.10905 1.39873,3.64505 0.87894,51.69123 -0.64863,59.95461 -3.46085,18.72147 -16.92568,30.81037 -35.66046,32.01644 -5.85234,0.37675 -11.11249,-0.14226 -15.42245,-1.5217 z m 247.79158,0.94298 c -13.44704,0 -26.29807,-14.87387 -32.30064,-27.93452 -5.03413,-10.95349 -5.05386,-27.04804 -0.0463,-37.80039 4.72678,-10.14952 13.27418,-19.12082 23.04742,-24.19045 7.44714,-3.86303 9.04555,-4.17513 21.38216,-4.17513 12.35842,0 13.91828,0.30604 21.33334,4.18565 7.78299,4.07211 16.68594,12.21372 20.97738,19.18348 1.16383,1.89018 3.07003,6.64908 4.236,10.57534 6.67064,22.46248 -3.6689,45.38266 -25.56367,56.6683 -5.57722,2.87477 -9.27047,3.71259 -18,4.08332 -6.04068,0.25653 -12.74549,-0.5956 -15.06566,-0.5956 z m 30.5265,-15.30033 c 3.37283,-1.97661 7.69692,-5.64501 9.6091,-8.152 4.64789,-6.0937 8.61368,-16.85909 8.61368,-23.38238 0,-6.47313 -3.95637,-17.27633 -8.51646,-23.25492 -7.59802,-9.96152 -22.98859,-15.19271 -35.88093,-12.19579 -17.27842,4.0165 -27.51878,17.07453 -27.57333,35.1602 -0.0405,13.41848 4.04064,22.05105 14.20439,30.04586 9.39597,7.39087 28.50101,8.25039 39.54355,1.77903 z m -48.44389,-46.6625 c 0,-2.82038 9.81521,-12.38331 15.89186,-15.48338 7.64468,-3.90002 21.36601,-3.70614 29.44148,0.416 5.62059,2.86905 15.61473,13.69188 14.06997,15.23663 -0.38461,0.38461 -1.95158,-0.89272 -3.48215,-2.83853 -1.53057,-1.9458 -5.524,-5.14424 -8.87429,-7.10764 -5.14143,-3.01308 -7.6735,-3.57441 -16.23581,-3.59926 -11.59647,-0.0336 -18.1796,2.62839 -26.10898,10.55777 -2.72058,2.72058 -4.70208,3.90828 -4.70208,2.81841 z m -370.06023,60.11864 c 0,0.98742 -0.48493,-21.77188 -0.29149,-46.33334 l 0.35171,-44.65723 25.33334,-0.37478 c 28.75474,-0.4254 32.96983,0.45573 41.10735,8.59324 5.96395,5.96396 8.03696,12.00367 7.27475,21.19496 -0.76165,9.18445 -5.67691,16.3866 -14.43747,21.1547 -3.63621,1.97907 -6.6113,3.93942 -6.6113,4.35631 0,0.4169 4.8,8.40091 10.66667,17.74224 5.86667,9.34134 10.66667,17.69567 10.66667,18.56518 0,1.05417 -2.11024,1.44553 -6.33334,1.17455 -6.17267,-0.39608 -6.46863,-0.61752 -11.66667,-8.72888 -2.93333,-4.57737 -8.34408,-12.97738 -12.0239,-18.66667 l -6.69057,-10.34418 h -12.64276 -12.64277 l -0.36994,19 -0.36994,19 h -5.33857 c -3.05697,0 -5.98177,-2.70418 -5.98177,-1.67614 z m 55.52971,-50.70066 c 6.38256,-4.28762 9.04358,-12.14097 6.43561,-18.99317 -3.63246,-9.54397 -6.6634,-10.63003 -29.66589,-10.63003 h -20.23921 l -0.37437,16.33334 -0.37437,16.33333 h 19.84386 c 18.4507,0 20.16193,-0.21367 24.37437,-3.04347 z m -0.72432,-20.33227 c -1.98553,-1.50178 -6.8753,-1.95759 -21.00001,-1.95759 -17.52293,0 -18.41182,-0.12875 -18.41182,-2.66667 0,-2.51892 0.88889,-2.66667 16.04282,-2.66667 17.29889,0 23.93177,1.63648 26.56343,6.55379 1.72914,3.23092 0.48287,3.51851 -3.19442,0.73714 z m 175.25484,26.04241 v -46.87846 l 24.33333,0.43923 c 23.5599,0.42527 24.57661,0.55868 31.98704,4.19761 22.97818,11.28356 33.15052,38.07967 23.02285,60.64712 -4.33568,9.66117 -14.76239,20.20654 -24.28888,24.56529 -5.66534,2.59212 -9.13933,2.97831 -30.72101,3.41514 l -24.33333,0.49252 z m 50,32.82466 c 21.97908,-9.45022 27.79699,-40.30716 10.92456,-57.9415 -7.94457,-8.30334 -13.00669,-9.9882 -31.92456,-10.62565 l -17,-0.57283 v 36.31862 36.31862 l 16.33333,-0.60206 c 11.36412,-0.41889 17.95594,-1.29972 21.66667,-2.8952 z m 9.92822,-50.98748 c -7.51177,-7.89529 -13.15418,-9.77427 -29.45224,-9.8079 -10.92396,-0.0225 -14.35584,-0.45968 -14.90813,-1.89893 -1.17292,-3.05657 0.30898,-3.46369 12.60778,-3.46369 18.17357,0 29.49382,5.23705 35.3057,16.33334 2.52166,4.81445 1.95845,4.63013 -3.55311,-1.16282 z m 197.72108,18.57366 0.3507,-46.41085 h 5.33334 5.33333 l 0.3641,23.66667 c 0.20026,13.01667 0.83072,23.66667 1.40103,23.66667 0.57031,0 11.74283,-10.8 24.82779,-24 l 23.79085,-24 h 7.14145 c 3.9278,0 7.14145,0.57158 7.14145,1.27018 0,0.6986 -8.74924,10.27623 -19.44275,21.28362 -13.16334,13.54973 -19.10428,20.56779 -18.39478,21.72982 0.57638,0.94401 2.94708,3.81638 5.26823,6.38305 13.03596,14.41484 35.23597,40.59348 35.23597,41.55086 0,0.61369 -3.21247,1.1158 -7.13882,1.1158 h -7.13882 l -15.86118,-18.28322 c -8.72363,-10.05576 -16.7859,-19.41649 -17.91611,-20.80166 -1.96278,-2.40555 -2.41121,-2.15058 -10,5.68577 l -7.94508,8.20426 -0.66666,12.26408 -0.66667,12.26407 -5.68403,0.41084 -5.68403,0.41085 z m 117.82669,44.14673 c -1.24244,0 -0.80932,-21.2109 -0.80932,-44.55761 0,-23.34672 0.3642,-43.39764 0.80932,-44.55762 0.54029,-1.40798 2.48306,-2.10905 5.84449,-2.10905 4.09456,0 5.18536,0.56042 5.83915,3 1.05375,3.93209 1.08247,85.48436 0.0311,88.22428 -0.5408,1.4093 -2.48419,2.10905 -5.85735,2.10905 -3.37316,0 -4.34784,-2.10905 -5.85735,-2.10905 z m -548.09492,-33.8137 c -0.81214,0 1.33397,-2.25749 3.91319,-3.48141 2.57923,-1.22392 6.49316,-4.27956 8.69762,-6.7903 5.15152,-5.86726 5.18279,-3.82723 0.05,3.25844 -5.16988,7.1368 -8.91866,7.01327 -12.66077,7.01327 z M 700.28801,687.0941 c -0.0133,-2.55033 36.89592,-39.52013 38.17671,-38.23934 0.52098,0.52098 -7.85328,9.79199 -18.60947,20.60223 -10.75618,10.81023 -19.56144,18.74694 -19.56724,17.63711 z M 383.32151,551.11196 c -30.71453,0 -31.6501,-1.08262 -31.6501,-10.82632 0,-4.11277 0.7685,-6.08066 3.11741,-7.98269 2.91702,-2.36206 5.92499,-2.52432 46.79485,-2.52432 h 43.67745 l 0.62154,-25 c 0.58684,-23.60411 0.81301,-25.37224 4.05052,-31.66667 3.42936,-6.66743 8.0656,-11.69787 14.35722,-15.57794 6.04126,-3.72568 17.10126,-5.08873 41.29079,-5.08873 28.63527,0 27.42966,0.57664 29.9022,-14.30211 1.19189,-7.1723 7.09356,-14.60973 14.53581,-18.31835 l 6.78186,-3.37954 h 105.5263 c 114.63763,0 112.99051,0.0994 122.83798,-7.41165 2.72108,-2.07547 6.13922,-6.63241 7.96288,-10.61581 l 3.19526,-6.97937 -0.35633,-146.49659 -0.35634,-146.49659 -4.02167,-5.95636 c -2.21191,-3.275999 -6.96482,-7.776 -10.56201,-10.000001 L 774.4868,78.44528 480.23272,78.103134 C 154.07147,77.723888 181.60677,76.970842 170.99233,86.560352 160.90905,95.669993 161.49206,85.325014 161.9066,247.77862 l 0.37086,145.33334 3.33334,5.93774 c 7.18807,12.80423 22.20953,19.37617 35.33688,15.45996 8.21745,-2.45147 15.7924,-8.54932 19.70181,-15.86 2.92087,-5.46208 2.97041,-6.46629 3.62797,-73.5377 l 0.66667,-68 3.85218,-7.7288 c 5.64954,-11.33491 13.85552,-19.75754 24.40759,-25.05195 8.68056,-4.3554 9.70883,-4.55259 23.74023,-4.55259 13.51692,0 15.29153,0.30631 22.63759,3.90743 10.61311,5.20266 19.85595,14.69094 25.1049,25.77157 l 4.25751,8.98767 0.66667,68 c 0.72988,74.44652 0.38698,71.35668 8.85872,79.82842 15.36838,15.36838 39.51077,11.66306 49.07611,-7.53208 l 3.39851,-6.81992 0.0475,-62.07155 c 0.051,-66.64238 0.36985,-70.44353 7.00655,-83.52724 4.7658,-9.39537 16.09376,-19.3858 26.87513,-23.70187 7.03369,-2.81578 10.97853,-3.5091 19.96621,-3.5091 15.92446,0 24.17565,3.40066 35.52653,14.64195 12.04823,11.9319 15.87576,21.51451 16.89997,42.31098 l 0.73692,14.96301 6.37433,2.11721 c 12.45727,4.13763 24.09746,14.48964 29.76592,26.47179 5.59241,11.82138 6.40931,18.5972 5.84978,48.52152 -0.4724,25.26483 -0.77703,28.21314 -3.54478,34.30688 -6.65046,14.64228 -17.79124,25.16562 -32.43264,30.63516 -4.91677,1.83675 -9.23006,2.22938 -20.0793,1.82777 -13.26333,-0.49097 -14.18641,-0.72437 -23.0202,-5.82054 -11.55373,-6.66529 -20.75949,-17.65239 -24.69222,-29.47024 -2.48659,-7.47221 -2.78159,-11.43384 -2.73079,-36.6724 0.0611,-30.34859 0.80071,-34.89569 7.67744,-47.1995 5.41691,-9.6919 18.31602,-19.43129 31.55501,-23.82539 2.2188,-0.73644 2.40607,-2.21679 2,-15.81036 -0.42158,-14.11257 -0.68506,-15.34891 -4.46393,-20.94561 -2.20874,-3.27127 -6.61043,-7.77127 -9.78152,-10 -5.13688,-3.61033 -6.81866,-4.05223 -15.422,-4.05223 -8.42141,0 -10.49109,0.51607 -16.18323,4.03525 -4.04243,2.49925 -8.06285,6.51841 -10.5621,10.5588 l -4.03525,6.52355 -0.66667,67.44121 38.67298,12.32925 -4.14715,8.66667 c -8.55462,17.87735 -61.38906,83.10256 -80.4779,85.94167 -11.95634,1.77828 -21.18644,0.30214 -31.88885,-5.09989 -12.30051,-6.20866 -22.93578,-19.81932 -26.35625,-33.72983 -0.63112,-2.56667 -1.13651,-32.27938 -1.12309,-66.02824 0.0283,-71.19088 -0.001,-71.42042 -10.62281,-82.04183 -14.34489,-14.34488 -36.45491,-11.50647 -47.28317,6.07006 l -4.10709,6.66667 -0.66667,68 -0.66667,68 -4.48291,8.93205 c -8.20815,16.35447 -21.21597,26.01876 -39.19972,29.12388 -29.25064,5.05048 -56.52841,-14.68174 -61.08127,-44.18501 -0.82474,-5.34441 -1.17761,-62.1463 -0.94347,-151.87092 l 0.37404,-143.333343 3.14578,-7.564077 c 3.78653,-9.104753 14.19079,-21.153334 22.44211,-25.98893 3.30977,-1.939656 10.0065,-4.616256 14.88161,-5.947998 8.43498,-2.3042 22.80966,-2.423228 297.11,-2.460173 310.82565,-0.04186 298.82953,-0.300146 312.30584,6.724098 15.19005,7.917496 25.95692,23.488784 28.1822,40.757723 1.47943,11.48089 1.53729,275.13269 0.0632,287.82857 -2.17802,18.75819 -13.33012,34.27102 -30.47636,42.39329 l -8.98767,4.25751 -108.93402,0.66667 c -77.09402,0.47181 -109.36555,1.09839 -110.4104,2.14373 -0.81201,0.81238 -2.38324,5.01238 -3.49162,9.33333 -2.5442,9.91839 -6.90613,16.65023 -13.40754,20.69205 -4.60166,2.86078 -7.00773,3.22816 -25.08976,3.83089 l -20,0.66666 v 27.33334 27.33333 l 51.52822,0.66667 c 48.27579,0.62459 51.70527,0.82699 54.33333,3.20665 1.90696,1.72672 2.80512,4.15097 2.80512,7.57143 0,5.39844 -2.40652,8.77254 -7.09324,9.94523 -3.84388,0.96179 -180.69075,0.61002 -215.19606,0.61002 z m 91.62263,-47.33333 c 0,-14.3 -0.47064,-26 -1.04586,-26 -0.57522,0 -2.07522,1.74257 -3.33333,3.87239 -1.91364,3.23952 -2.28748,7.48873 -2.28748,26 v 22.12761 h 3.33333 3.33334 z m 27.47764,-93.89753 c -8.76487,0 13.72326,-13.07291 15.09227,-21.62727 1.59987,-9.9969 1.66005,-42.23199 0.0943,-50.48838 -1.66202,-8.76377 -7.26638,-17.11705 -14.03359,-20.91701 l -5.29725,-2.97454 -0.66667,27.25202 c -0.63483,25.95076 -0.80849,27.39368 -3.63703,30.21902 -4.37769,4.37274 -11.78333,4.04265 -15.86909,-0.70733 -3.09777,-3.60138 -3.16054,-4.205 -3.16054,-30.39147 v -26.71711 l -6.33334,4.4871 c -4.26294,3.02024 -7.53198,6.84412 -10,11.69722 -3.62589,7.12993 -3.66666,7.4975 -3.66666,33.0536 0,25.12314 0.0975,26.04958 3.4981,33.23786 3.45928,7.31231 11.24895,14.44835 18.25161,16.72012 5.7205,1.85582 31.98318,-2.84383 25.72793,-2.84383 z m 163.18903,-47.15479 c -2.44871,-1.2339 -3.51026,-3.05091 -4,-6.84662 -0.94565,-7.32917 -5.70687,-10.76174 -11.92205,-8.59511 -4.20276,1.46509 -4.74504,1.32027 -7.63437,-2.03877 -3.77378,-4.3873 -3.91814,-7.08544 -0.57324,-10.71458 2.2012,-2.38827 2.33356,-3.3703 1,-7.41927 -1.18082,-3.5852 -2.36413,-4.76226 -5.1061,-5.07915 -4.7898,-0.55356 -6.69964,-3.17628 -6.18855,-8.49852 0.34514,-3.59414 1.32888,-4.84285 5.27264,-6.69284 6.52763,-3.06206 8.71001,-8.90295 5.06017,-13.54297 -3.32717,-4.22982 -3.23776,-6.00857 0.53929,-10.7289 2.9155,-3.64361 3.37229,-3.78121 7.62774,-2.29775 6.2319,2.17245 10.98028,-1.26283 11.92447,-8.62693 0.60846,-4.74563 1.11764,-5.31098 5.83185,-6.47512 4.73291,-1.16876 5.42498,-0.97348 8.26938,2.33334 4.21194,4.89667 11.326,5.03238 14.44283,0.2755 2.34114,-3.57304 7.03331,-4.36692 11.54359,-1.95309 1.77272,0.94873 2.57902,2.79617 2.57902,5.90921 0,6.12604 5.98662,10.74336 11.30679,8.72064 5.12258,-1.9476 5.54001,-1.80338 9.39018,3.24446 l 3.49935,4.58789 -2.85813,3.86583 c -4.18421,5.65945 -2.29194,12.37877 4.07174,14.45846 3.9976,1.30644 4.6442,2.13593 5.00943,6.42638 0.49337,5.79562 -1.2923,8.42575 -6.10655,8.99441 -5.20806,0.61518 -6.90315,8.05726 -3.02881,13.29759 3.05269,4.12898 2.53677,6.45049 -2.43304,10.9481 -2.29129,2.07359 -3.39727,2.23721 -6.89061,1.01943 -5.89011,-2.0533 -11.96035,2.36079 -11.96035,8.6972 0,3.50359 -0.78833,4.78934 -3.93379,6.41592 -5.65254,2.92304 -7.61177,2.54834 -10.27831,-1.96576 -1.85545,-3.14103 -3.29469,-4 -6.70213,-4 -3.27534,0 -5.06437,0.98075 -7.2966,4 -3.23063,4.36966 -5.38025,4.83861 -10.45584,2.28102 z m 27.57987,-26.36984 c 17.74355,-6.72285 19.01974,-34.04678 2.036,-43.59218 -6.20986,-3.49013 -17.10069,-4.02056 -22.68209,-1.1047 -4.0991,2.14147 -9.89225,8.0593 -12.1042,12.36471 -2.39511,4.66191 -1.80311,15.92572 1.14023,21.69515 2.45972,4.82146 7.3611,9.34268 12.03019,11.09713 3.47612,1.30618 15.67468,1.01953 19.57987,-0.46011 z m -101.7596,-60.58055 c -10.31266,-3.25306 -11.40676,-4.28314 -11.08564,-10.437 0.45487,-8.71676 0.20143,-9.32934 -5.54119,-13.39352 l -5.41628,-3.83323 -6.70836,2.16656 c -3.6896,1.1916 -7.18836,2.16656 -7.77503,2.16656 -1.46431,0 -10.62711,-12.63433 -10.62711,-14.65343 0,-0.89622 1.87078,-3.99154 4.15729,-6.8785 4.0632,-5.1302 4.1191,-5.39104 2.4701,-11.5252 -2.11471,-7.86655 -2.4714,-8.24412 -10.22521,-10.82382 -7.50928,-2.49834 -9.24337,-5.86202 -7.84149,-15.21046 0.88673,-5.91312 1.16881,-6.24098 6.51642,-7.57403 8.34523,-2.0803 9.25176,-2.91033 11.32747,-10.37186 l 1.90642,-6.85296 -4.1555,-5.24674 c -2.28552,-2.88571 -4.1555,-5.98002 -4.1555,-6.87624 0,-1.94741 9.13772,-14.65343 10.53823,-14.65343 0.53777,0 4.13194,0.93668 7.98703,2.08152 7.00688,2.08082 7.01092,2.08028 11.90867,-1.59618 6.59425,-4.94994 6.82083,-5.42131 5.98758,-12.45682 -0.85024,-7.17895 -0.10545,-8.02458 9.96011,-11.30863 7.94995,-2.5938 9.01199,-2.1732 13.71102,5.43 2.65849,4.30152 3.16364,4.51677 10.59993,4.51677 7.72717,0 7.85323,-0.0624 12.11728,-6 2.36988,-3.3 5.08465,-6 6.03283,-6 0.94818,0 5.04647,1.24311 9.10731,2.76247 l 7.38335,2.76246 0.002,8.23754 0.002,8.23753 5.7886,3.65687 c 5.7546,3.63539 5.82976,3.64465 12.79324,1.57672 8.02277,-2.38251 8.90919,-1.9525 15.45955,7.49969 l 3.58401,5.17174 -4.68914,6.38789 -4.68915,6.3879 2.15314,7.01669 c 1.9996,6.51633 2.53733,7.11217 7.54073,8.35566 9.1193,2.26642 9.38758,2.63105 9.38758,12.75883 v 9.18802 l -7.39758,2.34214 c -7.19228,2.27714 -7.45656,2.53436 -9.52292,9.26825 l -2.12534,6.9261 4.52292,5.92349 c 2.48761,3.25792 4.52292,6.38333 4.52292,6.94536 0,1.3664 -10.49628,14.59466 -11.58048,14.59466 -0.46849,0 -4.00111,-0.99274 -7.85027,-2.20607 l -6.99846,-2.20607 -5.45206,4.31811 c -5.26599,4.17074 -5.45206,4.58403 -5.45206,12.11027 v 7.79216 l -7.38335,2.76247 c -4.06084,1.51936 -8.13277,2.76246 -9.04873,2.76246 -0.91596,0 -3.90508,-3 -6.64251,-6.66666 -4.46219,-5.97694 -5.49175,-6.65698 -9.95127,-6.57296 -7.06563,0.13312 -8.933,1.17605 -13.55933,7.57296 -2.25401,3.11666 -4.54444,5.60734 -5.08984,5.53484 -0.5454,-0.0725 -3.47252,-0.9144 -6.5047,-1.87088 z m 39.51306,-42.75793 c 9.16532,-4.25093 15.24626,-9.98806 19.68569,-18.5727 2.86504,-5.54018 3.44759,-8.46905 3.44759,-17.33334 0,-8.86254 -0.58574,-11.80855 -3.46306,-17.41794 -7.01548,-13.67675 -20.20576,-21.91539 -35.08711,-21.91539 -16.1426,0 -28.89214,7.99578 -35.59744,22.32468 -3.60871,7.71164 -3.92753,9.48291 -3.37709,18.76211 0.37102,6.2546 1.55494,12.06463 3.03888,14.91321 10.43259,20.02639 32.12943,28.15517 51.35254,19.23937 z m 96.30943,36.76063 c -1.98568,-3.17959 -6.36553,-3.4677 -9.2263,-0.60693 -1.78949,1.78948 -2.43302,1.81317 -4.90477,0.18053 -1.56476,-1.03356 -3.05252,-3.31044 -3.30612,-5.05973 -0.6739,-4.64846 -2.70099,-6.51387 -7.07846,-6.51387 -4.75446,0 -7.27561,-4.738 -4.31277,-8.10499 2.67547,-3.04041 2.27534,-7.57479 -0.81434,-9.22834 -1.74018,-0.93132 -2.66667,-2.79177 -2.66667,-5.35484 0,-3.08849 0.71973,-4.10833 3.36851,-4.77313 4.46865,-1.12156 6.52204,-5.00618 4.57213,-8.64962 -1.18491,-2.21402 -1.02001,-3.29307 0.81274,-5.31823 1.81485,-2.00539 3.38419,-2.36716 7.44903,-1.71716 4.82752,0.77195 5.23774,0.57117 6.55538,-3.20862 1.89873,-5.4467 7.23842,-6.57449 10.14257,-2.1422 2.4337,3.71429 5.27032,4.02596 8.66674,0.95225 3.63086,-3.28589 9.09957,-0.53159 9.09957,4.58296 0,4.7774 2.18903,6.96192 6.9763,6.96192 4.65332,0 7.13561,4.77957 4.20935,8.10499 -2.8266,3.21217 -2.21626,7.34985 1.43728,9.74375 3.96662,2.59902 3.07061,6.72566 -2.0124,9.26827 -2.68547,1.34332 -3.28581,2.65031 -3.32489,7.23862 -0.0554,6.50139 -3.59027,10.28874 -7.60002,8.14279 -3.0865,-1.65185 -7.68562,0.78517 -7.68562,4.07251 0,4.5677 -7.73096,5.6344 -10.35724,1.42907 z m 10.97946,-19.37778 c 4.07836,-4.07835 4.71111,-5.56704 4.71111,-11.08387 0,-5.21523 -0.666,-7.00814 -3.66666,-9.87074 -8.00003,-7.63195 -16.92704,-7.43405 -23.62304,0.52369 -8.54597,10.15632 -0.9378,24.93946 12.91192,25.08865 3.9335,0.0424 5.9272,-0.91826 9.66667,-4.65773 z M 226.64217,192.44529 c -15.28348,-0.60046 -17.26305,-0.96166 -19.93333,-3.63704 -4.38168,-4.39005 -4.03924,-11.78429 0.73597,-15.89174 l 3.70069,-3.18319 110.01742,0.35598 110.01742,0.35599 2.54856,3.14771 c 3.63446,4.48888 3.30628,11.54912 -0.72416,15.57956 -2.7137,2.7137 -4.59266,3.27694 -11,3.29741 -4.25,0.0136 -46.12727,0.16357 -93.06061,0.33333 -46.93333,0.16976 -92.96921,0.009 -102.30196,-0.35801 z m -18.59803,-54.71751 c -3.21849,-1.87788 -5.45343,-9.51267 -3.94559,-13.47857 2.85843,-7.51826 -3.31305,-7.13726 115.60948,-7.13726 h 109.68766 l 3.44089,3.23242 c 4.57055,4.29362 4.73736,11.75143 0.35495,15.86849 l -3.08593,2.89909 -109.91407,-0.0405 c -69.08552,-0.0255 -110.74365,-0.52459 -112.14739,-1.34363 z"
     id="path2-3"
     inkscape:label="path2-3"
     sodipodi:nodetypes="ssssssssssssssssssssssscssscsscsssssssssssssssssssssscsssssssssscccssssssssssssssssssssssssssssssssssssssssscsssssssssscccccsssssscccssssssssccsssssccssscccssssssssccccssscssssssscsssccccccssssssssssssssssssssssscsssssscssscccsscssscsssscssssscssscsssssscssssssssssssssssscccssssscscccsssscsssssssscssssscccsssssssssscccssssscsssscssssssssssssssssssssssssssscsssssssssssssssssssscsscssssssssscsssssssssssscccssscccssscsscsssscsscssssssccssssssssssssssssssssssssssssssssssssssscsscccsssscssscsscss"
     sodipodi:insensitive="true" />
</svg>
