<?xml version="1.0" encoding="UTF-8" standalone="no"?>
<!-- Created with Inkscape (http://www.inkscape.org/) -->

<svg
   width="297mm"
   height="210mm"
   viewBox="0 0 297 210"
   version="1.1"
   id="svg1096"
   inkscape:version="1.2.2 (732a01da63, 2022-12-09)"
   sodipodi:docname="logo.svg"
   xmlns:inkscape="http://www.inkscape.org/namespaces/inkscape"
   xmlns:sodipodi="http://sodipodi.sourceforge.net/DTD/sodipodi-0.dtd"
   xmlns="http://www.w3.org/2000/svg"
   xmlns:svg="http://www.w3.org/2000/svg">
  <sodipodi:namedview
     id="namedview1098"
     pagecolor="#ffffff"
     bordercolor="#000000"
     borderopacity="0.25"
     inkscape:showpageshadow="2"
     inkscape:pageopacity="0.0"
     inkscape:pagecheckerboard="0"
     inkscape:deskcolor="#d1d1d1"
     inkscape:document-units="mm"
     showgrid="false"
     inkscape:zoom="0.89263468"
     inkscape:cx="396.57881"
     inkscape:cy="382.01518"
     inkscape:window-width="1920"
     inkscape:window-height="1057"
     inkscape:window-x="1912"
     inkscape:window-y="-8"
     inkscape:window-maximized="1"
     inkscape:current-layer="layer1" />
  <defs
     id="defs1093">
    <clipPath
       clipPathUnits="userSpaceOnUse"
       id="clipPath20">
      <path
         d="m 74.048,410.586 c 0,-2.579 2.091,-4.668 4.669,-4.668 v 0 c 2.578,0 4.668,2.089 4.668,4.668 v 0 c 0,2.578 -2.09,4.668 -4.668,4.668 v 0 c -2.578,0 -4.669,-2.09 -4.669,-4.668"
         id="path18" />
    </clipPath>
    <linearGradient
       x1="0"
       y1="0"
       x2="1"
       y2="0"
       gradientUnits="userSpaceOnUse"
       gradientTransform="matrix(146.8739,0,0,-146.8739,56.442871,410.58594)"
       spreadMethod="pad"
       id="linearGradient32">
      <stop
         style="stop-opacity:1;stop-color:#6cdeb5"
         offset="0"
         id="stop26" />
      <stop
         style="stop-opacity:1;stop-color:#6cdeb5"
         offset="0.34298273"
         id="stop28" />
      <stop
         style="stop-opacity:1;stop-color:#008a9b"
         offset="1"
         id="stop30" />
    </linearGradient>
    <clipPath
       clipPathUnits="userSpaceOnUse"
       id="clipPath42">
      <path
         d="m 54.49,396.815 c -2.852,0 -5.185,-2.099 -5.185,-4.667 v 0 c 0,-2.568 2.333,-4.668 5.185,-4.668 v 0 h 4.696 c 2.851,0 5.185,2.1 5.185,4.668 v 0 c 0,2.568 -2.334,4.667 -5.185,4.667 v 0 z"
         id="path40" />
    </clipPath>
    <linearGradient
       x1="0"
       y1="0"
       x2="1"
       y2="0"
       gradientUnits="userSpaceOnUse"
       gradientTransform="matrix(146.8943,0,0,-146.8943,54.330566,392.14746)"
       spreadMethod="pad"
       id="linearGradient54">
      <stop
         style="stop-opacity:1;stop-color:#6cdeb5"
         offset="0"
         id="stop48" />
      <stop
         style="stop-opacity:1;stop-color:#6cdeb5"
         offset="0.34298273"
         id="stop50" />
      <stop
         style="stop-opacity:1;stop-color:#008a9b"
         offset="1"
         id="stop52" />
    </linearGradient>
    <clipPath
       clipPathUnits="userSpaceOnUse"
       id="clipPath64">
      <path
         d="m 132.633,415.254 h -1.861 -38.931 c -2.997,0 -5.448,-2.101 -5.448,-4.668 v 0 c 0,-2.567 2.451,-4.668 5.448,-4.668 v 0 h 3.028 c 2.969,-0.029 5.387,-2.116 5.387,-4.667 v 0 c 0,-2.565 -2.449,-4.667 -5.447,-4.667 v 0 H 73.865 c -2.996,0 -5.447,-2.101 -5.447,-4.668 v 0 c 0,-2.567 2.451,-4.668 5.447,-4.668 v 0 h 14.623 c 2.996,0 5.448,-2.1 5.448,-4.668 v 0 c 0,-2.568 -2.452,-4.669 -5.448,-4.669 v 0 h -3.582 c -2.998,0 -5.447,-2.1 -5.447,-4.667 v 0 c 0,-2.568 2.449,-4.669 5.447,-4.669 v 0 h 13.258 c 2.996,0 5.448,-2.1 5.448,-4.668 v 0 c 0,-2.541 -2.403,-4.621 -5.358,-4.664 v 0 h -4.235 c -2.996,0 -5.446,-2.101 -5.446,-4.668 v 0 c 0,-2.567 2.45,-4.668 5.446,-4.668 v 0 h 38.93 1.861 38.932 c 2.996,0 5.447,2.101 5.447,4.67 v 0 c 0,2.565 -2.451,4.667 -5.447,4.667 v 0 h -2.657 c -2.968,0.029 -5.386,2.115 -5.386,4.666 v 0 c 0,2.566 2.452,4.667 5.449,4.667 v 0 h 16.715 c 2.996,0 5.447,2.101 5.447,4.668 v 0 c 0,2.569 -2.451,4.669 -5.447,4.669 v 0 h -10.18 c -2.996,0 -5.446,2.099 -5.446,4.668 v 0 c 0,2.567 2.45,4.668 5.446,4.668 v 0 h 2.993 c 2.998,0 5.447,2.101 5.447,4.667 v 0 c 0,2.568 -2.449,4.669 -5.447,4.669 v 0 h -14.161 c -2.996,0 -5.445,2.1 -5.445,4.668 v 0 c 0,2.541 2.401,4.622 5.356,4.664 v 0 h 5.136 c 2.997,0 5.448,2.101 5.448,4.668 v 0 c 0,2.568 -2.451,4.668 -5.448,4.668 v 0 z"
         id="path62" />
    </clipPath>
    <linearGradient
       x1="0"
       y1="0"
       x2="1"
       y2="0"
       gradientUnits="userSpaceOnUse"
       gradientTransform="matrix(142.4912,0,0,-142.4912,54.753418,382.58057)"
       spreadMethod="pad"
       id="linearGradient76">
      <stop
         style="stop-opacity:1;stop-color:#6cdeb5"
         offset="0"
         id="stop70" />
      <stop
         style="stop-opacity:1;stop-color:#6cdeb5"
         offset="0.34298273"
         id="stop72" />
      <stop
         style="stop-opacity:1;stop-color:#008a9b"
         offset="1"
         id="stop74" />
    </linearGradient>
    <clipPath
       clipPathUnits="userSpaceOnUse"
       id="clipPath86">
      <path
         d="m 189.533,391.889 c 0,-2.579 2.09,-4.669 4.668,-4.669 v 0 c 2.579,0 4.67,2.09 4.67,4.669 v 0 c 0,2.579 -2.091,4.667 -4.67,4.667 v 0 c -2.578,0 -4.668,-2.088 -4.668,-4.667"
         id="path84" />
    </clipPath>
    <linearGradient
       x1="0"
       y1="0"
       x2="1"
       y2="0"
       gradientUnits="userSpaceOnUse"
       gradientTransform="matrix(146.90462,0,0,-146.90462,53.353027,391.88867)"
       spreadMethod="pad"
       id="linearGradient98">
      <stop
         style="stop-opacity:1;stop-color:#6cdeb5"
         offset="0"
         id="stop92" />
      <stop
         style="stop-opacity:1;stop-color:#6cdeb5"
         offset="0.34298273"
         id="stop94" />
      <stop
         style="stop-opacity:1;stop-color:#008a9b"
         offset="1"
         id="stop96" />
    </linearGradient>
    <clipPath
       clipPathUnits="userSpaceOnUse"
       id="clipPath108">
      <path
         d="m 75.713,359.185 c -2.854,0 -5.185,-2.1 -5.185,-4.668 v 0 c 0,-2.568 2.331,-4.667 5.185,-4.667 v 0 h 4.695 c 2.852,0 5.186,2.099 5.186,4.667 v 0 c 0,2.568 -2.334,4.668 -5.186,4.668 v 0 z"
         id="path106" />
    </clipPath>
    <linearGradient
       x1="0"
       y1="0"
       x2="1"
       y2="0"
       gradientUnits="userSpaceOnUse"
       gradientTransform="matrix(146.8943,0,0,-146.8943,54.330566,354.51758)"
       spreadMethod="pad"
       id="linearGradient120">
      <stop
         style="stop-opacity:1;stop-color:#6cdeb5"
         offset="0"
         id="stop114" />
      <stop
         style="stop-opacity:1;stop-color:#6cdeb5"
         offset="0.34298273"
         id="stop116" />
      <stop
         style="stop-opacity:1;stop-color:#008a9b"
         offset="1"
         id="stop118" />
    </linearGradient>
    <clipPath
       clipPathUnits="userSpaceOnUse"
       id="clipPath130">
      <path
         d="M 0,500 H 500 V 0 H 0 Z"
         id="path128" />
    </clipPath>
  </defs>
  <g
     inkscape:label="Livello 1"
     inkscape:groupmode="layer"
     id="layer1">
    <g
       id="g14"
       transform="matrix(1.3619399,0,0,-1.3619399,-31.140195,581.80583)">
      <g
         id="g16"
         clip-path="url(#clipPath20)">
        <g
           id="g22">
          <g
             id="g24">
            <path
               d="m 74.048,410.586 c 0,-2.579 2.091,-4.668 4.669,-4.668 v 0 c 2.578,0 4.668,2.089 4.668,4.668 v 0 c 0,2.578 -2.09,4.668 -4.668,4.668 v 0 c -2.578,0 -4.669,-2.09 -4.669,-4.668"
               style="fill:url(#linearGradient32);stroke:none"
               id="path34" />
          </g>
        </g>
      </g>
    </g>
    <g
       id="g36"
       transform="matrix(1.3619399,0,0,-1.3619399,-31.140195,581.80583)">
      <g
         id="g38"
         clip-path="url(#clipPath42)">
        <g
           id="g44">
          <g
             id="g46">
            <path
               d="m 54.49,396.815 c -2.852,0 -5.185,-2.099 -5.185,-4.667 v 0 c 0,-2.568 2.333,-4.668 5.185,-4.668 v 0 h 4.696 c 2.851,0 5.185,2.1 5.185,4.668 v 0 c 0,2.568 -2.334,4.667 -5.185,4.667 v 0 z"
               style="fill:url(#linearGradient54);stroke:none"
               id="path56" />
          </g>
        </g>
      </g>
    </g>
    <g
       id="g58"
       transform="matrix(1.3619399,0,0,-1.3619399,-31.140195,581.80583)">
      <g
         id="g60"
         clip-path="url(#clipPath64)">
        <g
           id="g66">
          <g
             id="g68">
            <path
               d="m 132.633,415.254 h -1.861 -38.931 c -2.997,0 -5.448,-2.101 -5.448,-4.668 v 0 c 0,-2.567 2.451,-4.668 5.448,-4.668 v 0 h 3.028 c 2.969,-0.029 5.387,-2.116 5.387,-4.667 v 0 c 0,-2.565 -2.449,-4.667 -5.447,-4.667 v 0 H 73.865 c -2.996,0 -5.447,-2.101 -5.447,-4.668 v 0 c 0,-2.567 2.451,-4.668 5.447,-4.668 v 0 h 14.623 c 2.996,0 5.448,-2.1 5.448,-4.668 v 0 c 0,-2.568 -2.452,-4.669 -5.448,-4.669 v 0 h -3.582 c -2.998,0 -5.447,-2.1 -5.447,-4.667 v 0 c 0,-2.568 2.449,-4.669 5.447,-4.669 v 0 h 13.258 c 2.996,0 5.448,-2.1 5.448,-4.668 v 0 c 0,-2.541 -2.403,-4.621 -5.358,-4.664 v 0 h -4.235 c -2.996,0 -5.446,-2.101 -5.446,-4.668 v 0 c 0,-2.567 2.45,-4.668 5.446,-4.668 v 0 h 38.93 1.861 38.932 c 2.996,0 5.447,2.101 5.447,4.67 v 0 c 0,2.565 -2.451,4.667 -5.447,4.667 v 0 h -2.657 c -2.968,0.029 -5.386,2.115 -5.386,4.666 v 0 c 0,2.566 2.452,4.667 5.449,4.667 v 0 h 16.715 c 2.996,0 5.447,2.101 5.447,4.668 v 0 c 0,2.569 -2.451,4.669 -5.447,4.669 v 0 h -10.18 c -2.996,0 -5.446,2.099 -5.446,4.668 v 0 c 0,2.567 2.45,4.668 5.446,4.668 v 0 h 2.993 c 2.998,0 5.447,2.101 5.447,4.667 v 0 c 0,2.568 -2.449,4.669 -5.447,4.669 v 0 h -14.161 c -2.996,0 -5.445,2.1 -5.445,4.668 v 0 c 0,2.541 2.401,4.622 5.356,4.664 v 0 h 5.136 c 2.997,0 5.448,2.101 5.448,4.668 v 0 c 0,2.568 -2.451,4.668 -5.448,4.668 v 0 z"
               style="fill:url(#linearGradient76);stroke:none"
               id="path78" />
          </g>
        </g>
      </g>
    </g>
    <g
       id="g80"
       transform="matrix(1.3619399,0,0,-1.3619399,-31.140195,581.80583)">
      <g
         id="g82"
         clip-path="url(#clipPath86)">
        <g
           id="g88">
          <g
             id="g90">
            <path
               d="m 189.533,391.889 c 0,-2.579 2.09,-4.669 4.668,-4.669 v 0 c 2.579,0 4.67,2.09 4.67,4.669 v 0 c 0,2.579 -2.091,4.667 -4.67,4.667 v 0 c -2.578,0 -4.668,-2.088 -4.668,-4.667"
               style="fill:url(#linearGradient98);stroke:none"
               id="path100" />
          </g>
        </g>
      </g>
    </g>
    <g
       id="g102"
       transform="matrix(1.3619399,0,0,-1.3619399,-31.140195,581.80583)">
      <g
         id="g104"
         clip-path="url(#clipPath108)">
        <g
           id="g110">
          <g
             id="g112">
            <path
               d="m 75.713,359.185 c -2.854,0 -5.185,-2.1 -5.185,-4.668 v 0 c 0,-2.568 2.331,-4.667 5.185,-4.667 v 0 h 4.695 c 2.852,0 5.186,2.099 5.186,4.667 v 0 c 0,2.568 -2.334,4.668 -5.186,4.668 v 0 z"
               style="fill:url(#linearGradient120);stroke:none"
               id="path122" />
          </g>
        </g>
      </g>
    </g>
    <g
       id="g124"
       transform="matrix(1.3619399,0,0,-1.3619399,-31.140195,581.80583)">
      <g
         id="g126"
         clip-path="url(#clipPath130)">
        <g
           id="g132"
           transform="translate(117.3066,382.418)">
          <path
             d="m 0,0 c 1.875,-0.609 2.766,-1.876 2.766,-4.783 v -8.911 c 0,-2.251 1.125,-3.565 3.47,-3.565 h 0.987 v -4.689 H 4.877 c -5.299,0 -7.975,2.673 -7.975,7.643 v 9.662 c 0,1.548 -0.795,2.251 -2.109,2.251 h -1.547 v 4.785 h 1.547 c 1.314,0 2.109,0.703 2.109,2.251 v 9.661 c 0,4.971 2.676,7.645 7.975,7.645 H 7.223 V 17.26 H 6.236 c -2.345,0 -3.47,-1.313 -3.47,-3.565 V 4.784 C 2.766,1.876 1.875,0.61 0,0"
             style="fill:#ffffff;fill-opacity:1;fill-rule:nonzero;stroke:none"
             id="path134" />
        </g>
        <g
           id="g136"
           transform="translate(153.0918,384.8105)">
          <path
             d="m 0,0 v -4.784 h -1.596 c -1.265,0 -2.062,-0.703 -2.062,-2.251 v -9.662 c 0,-4.971 -2.721,-7.644 -8.02,-7.644 h -2.345 v 4.69 h 0.984 c 2.393,0 3.518,1.313 3.518,3.564 v 8.911 c 0,2.907 0.845,4.174 2.72,4.783 -1.875,0.611 -2.72,1.876 -2.72,4.785 v 8.911 c 0,2.252 -1.125,3.564 -3.518,3.564 h -0.984 v 4.691 h 2.345 c 5.299,0 8.02,-2.674 8.02,-7.646 V 2.251 C -3.658,0.703 -2.861,0 -1.596,0 Z"
             style="fill:#ffffff;fill-opacity:1;fill-rule:nonzero;stroke:none"
             id="path138" />
        </g>
      </g>
    </g>
    <text
       xml:space="preserve"
       transform="scale(0.94868326,1.0540926)"
       style="font-variant:normal;font-weight:500;font-stretch:normal;font-size:41.3456px;font-family:'Montserrat Medium';-inkscape-font-specification:Montserrat-Medium;writing-mode:lr-tb;fill:#6cb4b5;fill-opacity:1;fill-rule:nonzero;stroke:none;stroke-width:1.29205"
       id="text142"
       x="4.795188"
       y="146.1042"><tspan
         x="4.795188"
         sodipodi:role="line"
         id="tspan140"
         y="146.1042"
         style="stroke-width:1.29205">Daniele</tspan></text>
    <text
       xml:space="preserve"
       transform="scale(0.94868326,1.0540926)"
       style="font-variant:normal;font-weight:bold;font-stretch:normal;font-size:41.3456px;font-family:Montserrat;-inkscape-font-specification:Montserrat-Bold;writing-mode:lr-tb;fill:#000000;fill-opacity:1;fill-rule:nonzero;stroke:none;stroke-width:1.29205"
       id="text146"
       x="162.68004"
       y="145.60719"><tspan
         sodipodi:role="line"
         id="tspan144"
         style="stroke-width:1.29205"
         x="162.68004"
         y="145.60719">Andree</tspan></text>
    <text
       xml:space="preserve"
       transform="scale(0.94868595,1.0540896)"
       style="font-variant:normal;font-weight:normal;font-stretch:normal;font-size:15.3452px;font-family:Montserrat;-inkscape-font-specification:Montserrat-Regular;writing-mode:lr-tb;fill:#808184;fill-opacity:1;fill-rule:nonzero;stroke:none;stroke-width:1.29205"
       id="text150"
       x="78.574829"
       y="167.20468"><tspan
         sodipodi:role="line"
         id="tspan148"
         style="stroke-width:1.29205"
         x="78.574829"
         y="167.20468">work smart, not hard</tspan></text>
  </g>
</svg>
